<?xml version="1.0" encoding="utf-8"?>
<!-- Generator: Adobe Illustrator 15.1.0, SVG Export Plug-In . SVG Version: 6.00 Build 0)  -->
<!DOCTYPE svg PUBLIC "-//W3C//DTD SVG 1.1//EN" "http://www.w3.org/Graphics/SVG/1.1/DTD/svg11.dtd">
<svg version="1.1" id="AutoBk" xmlns="http://www.w3.org/2000/svg" xmlns:xlink="http://www.w3.org/1999/xlink" x="0px" y="0px"
	 width="408px" height="420px">
<g>
	<path fill="#4779BD" d="M257,301h-54h-54c-6.627,0-12,5.373-12,12v14c0,6.627,5.373,12,12,12h54h54c6.627,0,12-5.373,12-12v-14
		C269,306.373,263.627,301,257,301z M181.871,328.625h-36.25v-3.25h36.25V328.625z M181.871,321.625h-36.25v-3.25h36.25V321.625z
		 M181.871,314.625h-36.25v-3.25h36.25V314.625z M233.5,333.125c-1.934,0-3.5-1.566-3.5-3.5s1.566-3.5,3.5-3.5s3.5,1.566,3.5,3.5
		S235.434,333.125,233.5,333.125z M243.5,333.125c-1.934,0-3.5-1.566-3.5-3.5s1.566-3.5,3.5-3.5s3.5,1.566,3.5,3.5
		S245.434,333.125,243.5,333.125z M253.5,333.125c-1.934,0-3.5-1.566-3.5-3.5s1.566-3.5,3.5-3.5s3.5,1.566,3.5,3.5
		S255.434,333.125,253.5,333.125z"/>
	<path fill="#4779BD" d="M257,261h-54h-54c-6.627,0-12,5.373-12,12v14c0,6.627,5.373,12,12,12h54h54c6.627,0,12-5.373,12-12v-14
		C269,266.373,263.627,261,257,261z M181.871,288.625h-36.25v-3.25h36.25V288.625z M181.871,281.625h-36.25v-3.25h36.25V281.625z
		 M181.871,274.625h-36.25v-3.25h36.25V274.625z M233.5,293.125c-1.934,0-3.5-1.566-3.5-3.5s1.566-3.5,3.5-3.5s3.5,1.566,3.5,3.5
		S235.434,293.125,233.5,293.125z M243.5,293.125c-1.934,0-3.5-1.566-3.5-3.5s1.566-3.5,3.5-3.5s3.5,1.566,3.5,3.5
		S245.434,293.125,243.5,293.125z M253.5,293.125c-1.934,0-3.5-1.566-3.5-3.5s1.566-3.5,3.5-3.5s3.5,1.566,3.5,3.5
		S255.434,293.125,253.5,293.125z"/>
	<g id="Layer_1_1_">
		<g>
			<polygon fill="#699ECC" points="404.924,418.411 253.363,2 151.364,2 297.428,403.304 			"/>
			<polygon fill="#8DC3EA" points="109,398.652 253.371,2 151.37,2 1.502,413.761 			"/>
		</g>
	</g>
	<path fill="#4779BD" d="M257,341h-54h-54c-6.627,0-12,5.373-12,12v14c0,6.627,5.373,12,12,12h54h54c6.627,0,12-5.373,12-12v-14
		C269,346.373,263.627,341,257,341z M181.871,368.625h-36.25v-3.25h36.25V368.625z M181.871,361.625h-36.25v-3.25h36.25V361.625z
		 M181.871,354.625h-36.25v-3.25h36.25V354.625z M233.5,373.125c-1.934,0-3.5-1.566-3.5-3.5s1.566-3.5,3.5-3.5s3.5,1.566,3.5,3.5
		S235.434,373.125,233.5,373.125z M243.5,373.125c-1.934,0-3.5-1.566-3.5-3.5s1.566-3.5,3.5-3.5s3.5,1.566,3.5,3.5
		S245.434,373.125,243.5,373.125z M253.5,373.125c-1.934,0-3.5-1.566-3.5-3.5s1.566-3.5,3.5-3.5s3.5,1.566,3.5,3.5
		S255.434,373.125,253.5,373.125z"/>
</g>
</svg>
